# xmcd
#
# Track frame offsets:
#	150
#	18267
#	32440
#	47093
#	68318
#	81275
#	102592
#	128789
#	145594
#	162439
#	180852
#	204445
#
# Disc length: 2959 seconds
#
# Revision: 1
# Processed by: cddbd v1.4PL0 Copyright (c) Steve Scherf et al.
# Submitted via: EasyCDDAExtractor 5.1.0
#
DISCID=8f0b8d0c
DTITLE=Michael Krahn - The Weight of Glory
DYEAR=2000
DGENRE=Christian Country
TTITLE0=Eulogy
TTITLE1=She Remembers
TTITLE2=Exactly Who I Am
TTITLE3=Broken Hearted
TTITLE4=Time is Not the Healer
TTITLE5=The Weight of Glory
TTITLE6=Forgetting to Feed Myself
TTITLE7=Tell Me What You Know
TTITLE8=The Hand that Makes You Breathe
TTITLE9=On Grace
TTITLE10=Last Thoughts
TTITLE11=Farwell, Farewell
EXTD=
EXTT0=
EXTT1=
EXTT2=
EXTT3=
EXTT4=
EXTT5=
EXTT6=
EXTT7=
EXTT8=
EXTT9=
EXTT10=
EXTT11=
PLAYORDER=
